<svg width="34" height="28" viewBox="0 0 34 28" fill="none" xmlns="http://www.w3.org/2000/svg">
<rect x="17" y="2" width="4" height="26" fill="black"/>
<rect x="31.8496" y="13.8496" width="4" height="23" transform="rotate(90 31.8496 13.8496)" fill="black"/>
<path fill-rule="evenodd" clip-rule="evenodd" d="M1 16C1 8.24182 6.52174 1.77331 13.8496 0.31007V4.41781C8.75041 5.80151 5 10.4628 5 16C5 22.6274 10.3726 28 17 28H6.4167C3.09502 25.0682 1 20.7788 1 16ZM27.5833 28H17C23.6274 28 29 22.6274 29 16C29 9.37258 23.6274 4 17 4C16.9498 4 16.8997 4.00031 16.8496 4.00092V0.000692127C16.8997 0.000231044 16.9498 0 17 0C25.8366 0 33 7.16344 33 16C33 20.7788 30.905 25.0682 27.5833 28Z" fill="black"/>
<rect y="24" width="34" height="4" fill="black"/>
</svg>
